<?xml version="1.0" standalone="no"?> <!DOCTYPE svg PUBLIC "-//W3C//DTD SVG 1.0//EN" "http://www.w3.org/TR/2001/REC-SVG-20010904/DTD/svg10.dtd" > <svg xmlns="http://www.w3.org/2000/svg" width="100%" height="100%">
<defs >
<font horiz-adv-x="654" ><font-face
    font-family="Brush Script MT"
    units-per-em="2048"
    panose-1="3 6 8 2 4 4 6 7 3 4"
    ascent="1820"
    descent="-692"
    alphabetic="0" />
<missing-glyph horiz-adv-x="1024" d="M82 1365H942V0H82V1365ZM123 1324V41H901V1324H123Z" />
<glyph unicode=" " glyph-name="space" horiz-adv-x="575" />
<glyph unicode="!" glyph-name="exclam" horiz-adv-x="705" d="M713 1282Q734 1288 750 1288Q783 1288 822 1267T889 1208Q842 1139 737 982T579 747T472 585T389 455Q408 451 408 432Q408 420 385 391T342 362Q320 362 286 402T252 471Q252 485 267 519T322 621T409
773T528 977Q665 1212 713 1282ZM219 8Q189 8 160 34T131 109Q131 172 163 251T231 330Q253 330 275 315T314 271T330 209Q330 154 293 81T219 8Z" />
<glyph unicode="&quot;" glyph-name="quotedbl" horiz-adv-x="618" d="M221 1010V1247H371V1010L340 739H252L221 1010ZM485 1010V1247H637V1010L606 739H518L485 1010Z" />
<glyph unicode="#" glyph-name="numbersign" horiz-adv-x="1245" d="M111 768V899H403L481 1262H610L532 899H897L975 1262H1106L1028 899H1200V768H1001L936 451H1200V319H911L834 -41H702L780 319H414L338 -41H207L283 319H111V451H311L377 768H111ZM872 768H506L440
451H807L872 768Z" />
<glyph unicode="$" glyph-name="dollar" horiz-adv-x="961" d="M641 1104L770 1118Q791 1173 804 1202T843 1260T905 1288Q924 1288 924 1274Q924 1268 901 1217T860 1122Q956 1120 999 1101T1042 1018Q1042 938 971 905Q946 894 901 881T850 868Q838 868 838
877Q838 881 842 885Q861 895 870 900T879 918Q879 929 853 934T786 940L707 725Q928 700 928 543Q928 463 886 398T760 287T547 211Q531 163 514 101T485 12T459 -14Q444 -14 434 13T424 76Q424 126 451 197Q401 193 324 193Q302 130 287 61T262 -8Q250 -8 236
36T221 100Q221 119 246 209Q160 238 139 246T104 272T90 322Q90 404 184 473Q220 439 242 425T311 399L395 649Q336 651 294 663T227 706T203 791Q203 819 216 857T252 930Q297 996 368 1028T559 1085Q565 1100 571 1118T583 1149T601 1188T623 1231Q690 1242
690 1219Q690 1213 684 1198T663 1152T641 1104ZM438 770L494 922Q412 901 367 873T322 815Q322 777 438 770ZM705 944L573 934L510 760L633 741L705 944ZM674 621L610 418Q699 450 739 477T780 539Q780 575 757 589T674 621ZM596 631L469 641L385 389Q397 387
428 387Q477 387 518 397L596 631Z" />
<glyph unicode="%" glyph-name="percent" horiz-adv-x="1409" d="M731 1137Q761 1129 776 1108T791 1038Q791 957 745 859T622 692T457 623Q391 623 348 673T305 809Q305 896 356 984T490 1130T657 1188Q685 1188 700 1176T731 1137ZM475 748Q538 748 597 798T691
916T727 1032Q727 1087 696 1087Q692 1087 658 1079T606 1081Q604 1083 601 1085T594 1087Q581 1087 534 1046T451 944T414 819Q414 787 432 768T475 748ZM1143 467Q1179 454 1190 433T1202 350Q1202 257 1145 166T1014 16T895 -43Q849 -43 802 17T754 162Q754
232 801 315T922 455T1071 512Q1112 512 1143 467ZM840 156Q840 101 862 80T923 78T1008 154Q1058 217 1087 282T1116 381Q1116 428 1085 428Q1060 428 999 391T889 291T840 156ZM215 41Q215 88 288 176T569 485Q669 590 760 676T904 806T1060 935T1182 1038Q1256
1105 1286 1121T1317 1090Q1317 1054 1277 1006T1120 846T880 610T612 319Q540 236 476 152T368 6T307 -76T274 -96Q253 -96 234 -45T215 41Z" />
<glyph unicode="&amp;" glyph-name="ampersand" horiz-adv-x="1004" d="M365 8Q294 8 228 52T122 174T82 348Q82 476 179 581T467 788Q457 851 457 877Q457 978 499 1067T610 1218T754 1314T899 1348Q979 1348 1028 1310T1077 1210Q1077 1129 1036 1065T930 951T771
842T657 768Q689 642 754 510Q844 571 895 619T981 709T1028 750Q1037 750 1043 728T1049 680Q1049 619 1027 565T965 457T864 342L930 270Q939 278 952 293T972 313T987 319Q997 319 1002 311T1008 293Q1008 252 950 156T854 59Q834 59 815 75T769 128T725 190Q610
102 521 55T365 8ZM635 956V915Q779 996 858 1086T938 1229Q938 1274 893 1274Q852 1274 789 1226T681 1104T635 956ZM500 657Q426 606 369 547T278 433T244 340Q244 266 311 266Q360 266 444 298T612 393Q568 495 500 657Z" />
<glyph unicode="&apos;" glyph-name="quotesingle" horiz-adv-x="449" d="M270 1010V1247H418V1010L393 741H301L270 1010Z" />
<glyph unicode="(" glyph-name="parenleft" horiz-adv-x="682" d="M436 147Q455 176 463 176Q468 176 471 157T475 109Q475 58 445 27T373 7T295 78Q261 136 236 239T211 453Q211 626 275 790T431 1082T608 1289T723 1368Q736 1368 743 1352T750 1313Q750 1259
666 1167Q533 1021 450 825T367 436Q367 349 386 269T436 147Z" />
<glyph unicode=")" glyph-name="parenright" horiz-adv-x="682" d="M397 1194Q387 1174 379 1174Q374 1174 374 1183T375 1200Q375 1259 405 1296T471 1333Q503 1333 534 1297T585 1193T606 1032Q606 945 590 854T541 660T459 455Q358 234 280 121T150 8Q127 8
112 26T96 70Q96 91 109 111Q199 254 259 377T360 618T419 833T438 1014Q438 1083 427 1133T397 1194Z" />
<glyph unicode="*" glyph-name="asterisk" horiz-adv-x="662" d="M-72 893Q-72 909 -54 917T20 942T110 969T193 1006Q141 1026 55 1045T-53 1071T-74 1100Q-74 1115 -42 1164T10 1214Q30 1214 85 1183T238 1090Q238 1163 214 1240T190 1331Q190 1350 202 1356T242
1362Q348 1362 348 1292Q348 1276 335 1210T317 1087Q346 1102 367 1125T420 1192T475 1257T518 1278Q534 1278 553 1249T587 1184T602 1133Q602 1103 583 1095T489 1067T365 1022Q405 1011 476 997T571 972T596 940Q596 909 563 866T506 823Q500 823 447 861T326
940Q330 889 344 827T358 745Q358 720 344 703T303 686Q190 686 190 739Q190 742 200 766T220 832T236 940Q194 912 161 885T104 840T57 814T4 807Q-13 807 -42 837T-72 893Z" />
<glyph unicode="+" glyph-name="plus" horiz-adv-x="1366" d="M170 547V705H639V1176H797V705H1268V547H797V82H639V547H170Z" />
<glyph unicode="," glyph-name="comma" horiz-adv-x="682" d="M184 -25Q152 -13 143 -7T133 18Q133 45 164 89T236 167T301 201Q338 201 338 156Q338 105 278 21T168 -96Q135 -118 135 -102Q135 -95 140 -89T160 -63T184 -25Z" />
<glyph unicode="-" glyph-name="hyphen" horiz-adv-x="1044" d="M688 588Q722 596 729 596T782 588Q798 586 808 584T827 579T836 571Q836 562 782 517T674 457Q640 446 552 438T356 430Q299 430 271 434T242 455Q242 463 256 484T295 530Q362 598 541 598Q571
598 688 588Z" />
<glyph unicode="." glyph-name="period" horiz-adv-x="682" d="M158 -4Q141 -4 129 9T117 45Q117 63 138 109T192 192T260 229Q303 229 303 178Q303 150 280 106T223 29T158 -4Z" />
<glyph unicode="/" glyph-name="slash" horiz-adv-x="575" d="M150 -135H4L428 1380H573L150 -135Z" />
<glyph unicode="0" glyph-name="zero" horiz-adv-x="897" d="M887 1161Q934 1140 955 1093T977 952Q977 811 921 648T763 342T530 106Q383 2 289 2Q216 2 152 46T50 171T12 362Q12 514 95 681T307 984T575 1192T815 1243Q880 1229 887 1161ZM657 965L692 1038Q633
1008 588 979T485 897T362 764Q258 631 205 507T152 295Q152 170 236 170Q284 170 373 222T563 365Q659 453 731 562T842 777T881 958Q881 1006 860 1032T807 1059Q777 1059 744 1036T657 965Z" />
<glyph unicode="1" glyph-name="one" horiz-adv-x="555" d="M201 956V1038Q237 1070 274 1100T356 1165T450 1232T561 1298Q616 1218 616 1145Q616 1105 599 1056T553 944T479 786Q361 525 303 356T244 125Q244 120 251 86T258 35Q258 6 242 4T195 16Q118 54 92
88T66 176Q66 273 137 477Q173 580 221 682T327 888T438 1081Q325 1034 201 956Z" />
<glyph unicode="2" glyph-name="two" horiz-adv-x="897" d="M311 879Q416 874 461 865T506 829Q506 817 499 813T474 806T434 799Q400 793 322 776T236 758Q197 758 197 807Q197 851 215 920T265 1048T332 1133Q373 1162 459 1191T653 1241T850 1262Q895 1262
916 1250T947 1216T977 1128Q997 1067 997 989Q997 894 953 825T831 698T559 519T256 324Q246 317 215 298T160 257T111 203Q245 216 535 276Q614 293 688 313T778 334Q803 334 803 309Q803 286 793 253T762 185T715 125Q583 2 205 2Q107 2 74 33Q54 51 32 114T10
207Q10 259 61 334T201 489T397 631Q723 817 743 831Q816 881 857 932T899 1014Q899 1042 877 1057T813 1073Q748 1073 657 1050T472 982T311 879Z" />
<glyph unicode="3" glyph-name="three" horiz-adv-x="1044" d="M319 915Q290 932 278 952T266 1018Q266 1082 333 1134T522 1215T795 1245Q956 1245 1037 1186T1118 1012Q1118 944 1088 892T987 795Q909 747 463 655Q598 643 692 618T841 540T897 397Q897 299
812 202T573 43T233 -20Q99 -20 25 21T-49 127Q-49 164 -25 205T32 277T88 307Q102 307 102 297Q102 290 92 270Q82 260 82 248Q82 224 128 207T248 190Q348 190 442 212T610 271T728 349T772 424Q772 493 684 518T416 543Q355 543 299 533T244 522Q229 522 229
547Q229 586 250 647T301 727Q319 739 440 760T649 799T858 862Q934 891 972 929T1010 999Q1010 1077 817 1077Q723 1077 634 1066T495 1038T444 1006Q444 993 454 985T475 973T510 961Q516 959 522 953T528 938Q528 910 319 915Z" />
<glyph unicode="4" glyph-name="four" horiz-adv-x="874" d="M817 348L606 303Q577 226 567 131Q594 106 594 80Q594 57 523 9T428 -39Q381 -39 381 33Q381 155 412 270Q371 270 301 262T205 254Q144 254 110 264T57 301Q40 331 25 385T10 465Q10 487 38 546T122
683T252 831Q330 905 440 981T653 1115T836 1210T932 1247Q981 1247 981 1192Q981 1182 961 1135Q993 1105 993 1081Q993 1047 984 1019T960 967T924 911Q881 843 860 810T802 720T742 622T692 522Q850 549 866 549Q911 549 911 514Q911 468 817 348ZM498 489Q577
656 664 775T835 992T920 1104Q920 1113 914 1117T897 1122Q877 1122 733 1032Q581 936 475 853T286 672T147 459Q341 471 498 489Z" />
<glyph unicode="5" glyph-name="five" horiz-adv-x="874" d="M498 1210Q670 1202 762 1202Q897 1202 1020 1208Q976 1115 937 1054T881 985Q855 977 686 977Q530 977 463 979Q351 884 283 741Q470 805 563 805Q684 805 751 736T819 537Q819 372 712 242T438 41T98
-31Q-1 -31 -42 0T-84 113Q-84 160 -66 190T-6 248Q97 315 209 315Q221 315 221 307Q221 303 214 299T205 295Q78 248 78 221Q78 195 162 195Q285 195 418 256T642 402T733 539Q733 579 696 602T588 625Q520 625 465 614T339 583T252 563Q219 563 207 592Q195 616
184 639T165 688T156 731Q216 947 498 1210Z" />
<glyph unicode="6" glyph-name="six" horiz-adv-x="854" d="M750 1198L854 1192Q918 1188 940 1184T963 1167Q963 1156 870 1105T715 1016T543 889T324 676Q302 650 283 625T250 576T233 551Q340 665 424 720T602 776Q699 776 755 718T811 557Q811 443 732 305T533
71T301 -25Q232 -25 166 29T60 168T20 344Q20 466 107 625T361 938T750 1198ZM260 137Q313 137 409 209T579 385T653 582Q653 666 590 666Q518 666 365 537Q273 459 231 396T188 252Q188 191 204 164T260 137Z" />
<glyph unicode="7" glyph-name="seven" horiz-adv-x="895" d="M481 137L496 119Q408 51 343 16T231 -20Q191 -20 171 6T150 76Q150 159 227 312T466 656T864 1026Q736 1044 606 1044Q496 1044 432 1029T309 987Q288 978 263 961T233 944Q224 944 212 954T199 979Q199
1000 242 1057T307 1153Q336 1203 367 1223Q392 1236 510 1249T803 1262Q831 1262 870 1261T955 1256T1022 1251Q1042 1209 1052 1161T1063 1083Q1063 1056 1055 1041T1022 1006Q975 964 924 916T804 795T674 641T549 461Q487 364 454 285T420 152Q420 125 438
125Q457 125 481 137Z" />
<glyph unicode="8" glyph-name="eight" horiz-adv-x="918" d="M623 664Q669 580 695 519T721 406Q721 273 660 181T507 44T322 0Q242 0 172 44T102 156Q102 205 141 275T256 435T444 641Q297 813 297 954Q297 1054 339 1126T464 1246T669 1315T956 1337Q1061 1337
1102 1329T1143 1286Q1143 1276 1132 1250T1101 1188T1055 1122Q1042 1105 1028 1101T977 1100Q995 1070 995 1051Q995 1024 969 996T863 899T725 770Q704 749 674 717T623 664ZM563 750Q618 799 693 864T828 981T912 1058T936 1090Q936 1118 803 1118Q635 1118
550 1071T465 940Q465 904 491 854T563 750ZM510 551Q376 409 302 308T227 178Q227 113 340 113Q376 113 417 130T491 179T545 257T567 362Q567 471 510 551Z" />
<glyph unicode="9" glyph-name="nine" horiz-adv-x="938" d="M795 731Q690 646 614 591T478 506T369 475Q334 475 283 524T195 647T158 788Q158 913 284 1046T579 1268T842 1358Q892 1358 936 1325T1005 1252T1030 1190Q1030 1158 987 1113T893 1030T827 993Q821
993 821 1001Q821 1013 879 1071Q911 1103 911 1124Q911 1137 899 1137Q879 1137 797 1103T621 1012T451 879Q394 820 365 756T336 659Q336 612 391 612Q423 612 490 639T632 712T758 809Q866 916 908 948T985 981Q1009 981 1025 969T1042 936Q1042 929 981 831Q810
551 730 423T580 197T447 41T334 -16Q305 -16 305 23Q305 55 345 134T446 211Q565 378 637 487T795 731Z" />
<glyph unicode=":" glyph-name="colon" horiz-adv-x="682" d="M176 -4Q127 -4 127 47Q127 84 158 124T233 192T308 222T340 186Q340 157 313 112T246 31T176 -4ZM375 426Q351 426 339 442T326 485Q326 516 356 561T429 639T500 672Q521 672 533 659T545 623Q545
596 516 547T448 462T375 426Z" />
<glyph unicode=";" glyph-name="semicolon" horiz-adv-x="682" d="M381 408Q358 408 341 425T324 467Q324 499 355 545T430 625T500 659Q519 659 532 646T545 606Q545 573 518 526T453 444T381 408ZM182 -18Q121 -15 121 33Q121 59 150 102T221 178T295 211Q334
211 334 164Q334 124 285 40T180 -88Q158 -105 143 -109T127 -100Q127 -95 146 -73T182 -18Z" />
<glyph unicode="&lt;" glyph-name="less" horiz-adv-x="1366" d="M1266 268V96L172 557V698L1266 1157V987L385 629L1266 268Z" />
<glyph unicode="=" glyph-name="equal" horiz-adv-x="1366" d="M172 786V944H1266V786H172ZM172 315V473H1266V315H172Z" />
<glyph unicode="&gt;" glyph-name="greater" horiz-adv-x="1366" d="M172 987V1157L1266 698V557L172 96V268L1053 627L172 987Z" />
<glyph unicode="?" glyph-name="question" horiz-adv-x="662" d="M301 1090Q301 1081 314 1074T338 1061Q381 1044 381 1020Q381 1006 376 1006T355 1012T334 1020Q298 1029 255 1029T197 1037T182 1079Q182 1112 207 1169T262 1255Q284 1276 341 1300T469 1341T596
1358Q686 1358 738 1306T791 1155Q791 1105 771 1039T713 898T623 750T502 602Q444 544 413 501T381 420Q381 417 382 410T385 395T386 383T387 369Q387 326 356 326Q329 326 301 370T272 469Q272 545 354 650T618 913Q676 963 699 991T723 1061Q723 1110 689 1136T584
1163Q534 1163 464 1151T348 1122T301 1090ZM207 6Q189 6 153 36T117 115Q117 151 136 199T180 283T223 319Q240 319 261 299T295 251T309 197Q309 171 292 124T251 41T207 6Z" />
<glyph unicode="@" glyph-name="at" horiz-adv-x="2068" d="M1012 971Q1103 971 1181 924T1313 788L1346 944H1526L1382 272Q1374 231 1363 183T1352 115Q1352 91 1373 71T1425 51Q1487 51 1578 122T1739 320T1808 604Q1808 739 1755 855T1604 1056T1375 1188T1092
1235Q910 1235 757 1170T492 987T319 711T258 373Q258 193 315 51T485 -191T759 -343T1124 -395Q1366 -395 1548 -314T1825 -94H2005Q1975 -156 1923 -217T1797 -335T1637 -435T1458 -504Q1313 -543 1122 -543Q805 -543 577 -433T230 -119T111 356Q111 558 178
743T371 1073Q460 1177 571 1245T814 1347T1100 1380Q1295 1380 1453 1319T1724 1152T1896 908T1956 616Q1956 465 1905 332T1765 97T1570 -61T1360 -117Q1246 -117 1207 -74T1161 51Q1118 1 1065 -37T960 -95T858 -115Q757 -115 673 -57T540 105T492 338Q492 451
534 564T649 770T816 917T1012 971ZM676 322Q676 234 704 169T783 69T897 33Q957 33 1021 72T1138 180T1223 340T1255 532Q1255 668 1192 745T1022 823Q926 823 847 747T722 552T676 322Z" />
<glyph unicode="A" glyph-name="A" horiz-adv-x="1300" d="M891 412Q771 408 715 408Q629 408 477 412Q445 377 399 330T312 242T242 173T193 125Q82 17 49 -16T-22 -75T-90 -102Q-125 -102 -125 -70Q-125 -35 -75 38T38 167T141 223Q152 223 172 213L362 416Q326
421 268 422T190 431T170 465Q170 508 262 600Q312 651 356 665T524 680Q451 670 421 657T387 616Q416 616 440 616T504 616T563 618Q727 778 861 896T1143 1121T1460 1317Q1493 1274 1493 1227Q1493 1188 1468 1137T1360 946T1192 647Q1220 647 1238 647T1278
645Q1335 645 1347 643T1360 623Q1360 615 1345 595T1290 527T1214 430L1067 418Q950 198 950 170Q950 129 993 129Q1014 129 1167 217L1159 164Q1077 102 1032 67T953 8T892 -27T836 -39Q803 -39 771 -9T739 78Q739 101 756 143T792 225T891 412ZM702 639L1026
645Q1083 742 1118 802T1196 932T1269 1052T1337 1163Q1265 1118 1190 1063T1021 931T854 787T702 639Z" />
<glyph unicode="B" glyph-name="B" horiz-adv-x="1130" d="M563 676L512 616Q601 608 671 595T800 565T905 530Q1063 464 1063 346Q1063 274 997 205T826 82T609 -2T406 -33Q254 -33 169 23T84 178Q84 246 136 338T297 567Q215 571 181 591T147 649Q147 672 160
684T195 701T279 715T440 735Q549 869 635 936T821 1014Q829 1015 838 1015T848 1010Q848 1004 826 978T753 895T633 760Q821 785 940 817T1121 895T1182 995Q1182 1062 1117 1092T918 1122Q844 1122 749 1107T576 1073T438 1033T377 1001Q377 998 383 995Q432
977 432 965Q432 949 282 904T80 858Q43 858 43 895Q43 939 123 1053T270 1200Q293 1211 377 1235T561 1281T766 1318T950 1333Q1139 1333 1234 1266T1329 1096Q1329 1027 1286 963T1150 842T911 742T563 676ZM457 547Q405 485 365 438T307 361T289 301Q289 253
338 216T481 178Q567 178 664 208T828 288T895 387Q895 430 846 458T697 507T457 547Z" />
<glyph unicode="C" glyph-name="C" horiz-adv-x="1237" d="M1262 319V254Q1094 67 954 -54T679 -241T420 -307Q312 -307 235 -264T118 -139T78 57Q78 146 106 245T189 446T321 656T506 883Q616 1006 723 1095T917 1236T1078 1312T1202 1337Q1252 1337 1287 1313T1341
1243T1360 1137Q1360 1024 1283 886T1091 618T872 408T721 326Q690 326 664 350T637 406Q637 463 697 544T829 692T915 760Q922 760 922 754Q922 745 912 723T901 696Q901 688 907 688Q924 688 1005 779T1153 979T1221 1159Q1221 1188 1209 1203T1171 1219Q1101
1219 959 1106T667 817T417 454T317 125Q317 43 341 -12T413 -97T528 -127Q673 -127 857 -14T1262 319Z" />
<glyph unicode="D" glyph-name="D" horiz-adv-x="1323" d="M106 879Q106 872 119 872Q128 872 200 884T332 897Q266 879 219 861T121 820T48 790T10 782Q-41 782 -41 848Q-41 1018 45 1087Q80 1115 157 1153T332 1226T547 1286T778 1311Q895 1311 993 1277T1157
1182T1258 1031T1294 831Q1294 662 1197 503T937 223T570 30T168 -41Q131 -41 110 -33T79 -2T70 68Q70 125 79 161T109 244Q253 563 610 1047Q538 1039 452 1017T289 967T159 915T106 879ZM639 1053Q639 1051 643 1031T647 995Q647 972 624 931T531 783T413 597T297
391Q276 351 268 337T243 291T217 236T209 201Q209 175 237 165T319 154Q455 154 607 203T892 341T1106 540T1186 772Q1186 910 1085 984T791 1059Q710 1059 639 1053Z" />
<glyph unicode="E" glyph-name="E" horiz-adv-x="1260" d="M1333 1260V1192Q1333 1150 1317 1139T1196 1080T995 967Q1032 1021 1062 1047T1145 1112Q1100 1130 1020 1130Q896 1130 753 1081T509 964T408 850Q408 826 438 811T536 787T705 775T954 772Q1062 772
1093 764T1124 727Q1124 690 1088 643T991 586Q898 571 843 561T713 525T545 453Q408 381 331 307T254 176Q254 127 309 100T467 72Q822 72 1190 391Q1192 293 1169 219T1073 76Q1013 19 898 -33T646 -116T389 -147Q250 -147 159 -81T68 96Q68 176 112 255T247
406T477 538T799 631Q825 636 825 647Q825 659 795 661T683 665T539 672T408 698Q337 720 299 775T260 897Q260 983 322 1070T497 1227T770 1339T1122 1382Q1232 1382 1275 1370T1326 1337T1333 1260Z" />
<glyph unicode="F" glyph-name="F" horiz-adv-x="1153" d="M664 498H815Q946 674 1014 805T1083 977Q1083 1034 985 1034Q928 1029 783 1010T502 963Q380 940 307 916T203 875T166 852Q240 856 291 856Q371 856 371 838Q371 830 315 818T209 791Q160 777 114 758T57
739Q34 739 19 756T4 799Q4 816 31 887T109 1031T233 1139Q260 1152 405 1186T734 1248T1069 1276Q1161 1276 1216 1251T1272 1141Q1272 1114 1252 1058T1189 913T1083 720T940 498H1094L961 307Q934 305 894 304T805 301Q682 141 539 0T279 -226T115 -311Q96 -311
82 -299T68 -266Q68 -249 112 -179T236 -48T416 20Q457 63 486 96T570 193T653 291L352 276Q303 274 285 280T266 313Q266 313 276 338T297 383Q313 412 322 418T377 434L561 479Q635 498 664 498Z" />
<glyph unicode="G" glyph-name="G" horiz-adv-x="1153" d="M1174 319V266Q1060 170 948 83T676 -113Q594 -225 535 -296T433 -415T389 -463Q375 -480 342 -497T287 -514Q256 -514 236 -492T215 -438Q215 -358 299 -268T545 -82Q625 33 698 149T825 362T926 551Q854
491 783 436T644 330T560 267T532 246Q358 94 272 94Q190 94 134 172T78 369Q78 444 102 525T175 693T294 859T446 1006Q574 1108 733 1188T1029 1311T1231 1354Q1269 1354 1291 1336T1323 1286T1333 1219Q1333 1187 1313 1155Q1284 1112 1211 1065T1064 981T979
944Q973 944 973 948Q973 957 996 977T1047 1018Q1109 1065 1120 1118Q1023 1091 927 1047T737 942T549 803Q443 714 369 618T256 439T217 313Q217 280 238 256T295 231Q337 231 399 268Q466 308 546 370T695 489T842 612Q915 673 955 710T1016 776Q1058 834 1099
843T1170 827T1200 764Q1200 752 1157 671T1024 435T803 70Q919 132 1174 319Z" />
<glyph unicode="H" glyph-name="H" horiz-adv-x="1323" d="M229 878L14 765Q-36 740 -53 740Q-84 740 -98 759T-113 820Q-113 867 -93 928T-47 1019Q-20 1049 79 1101T319 1207T611 1295T889 1330Q977 1330 1019 1302T1061 1154Q1061 1089 1017 1010T910 855T678
589Q768 603 810 607T967 624Q1100 816 1182 930T1321 1120T1389 1207Q1409 1230 1422 1225T1436 1183Q1436 1142 1428 1116T1401 1065T1382 1037Q1356 994 1307 925T1211 787T1104 626Q1216 622 1325 597L1145 353Q1071 363 948 363Q918 303 902 269T874 205T862
148Q862 132 871 106T881 75Q881 55 852 33T783 -7T721 -24Q684 -24 684 32Q684 148 803 355Q645 342 440 308Q381 230 333 160T255 42T210 -22T178 -38Q149 -38 129 -13Q120 -3 118 7T115 29T115 50Q115 62 128 85T190 176T262 280Q236 277 195 277Q143 277 111
296T78 343Q78 375 95 411T139 472T193 497Q211 497 236 486L494 550Q710 784 816 920T922 1095Q922 1117 910 1131T877 1154T827 1162Q794 1162 723 1144T552 1091T305 994Q195 949 195 937Q195 923 210 919T248 913T272 906Q272 902 261 895T229 878Z" />
<glyph unicode="I" glyph-name="I" horiz-adv-x="897" d="M365 -29L303 16Q289 28 289 41Q289 54 336 131Q370 186 427 282T520 440T605 602T698 799Q795 1020 795 1081Q795 1153 739 1153Q697 1153 620 1111T459 999T321 855T266 723Q266 714 271 710T289 705Q313
705 367 733Q391 745 391 729Q391 713 315 647T203 580Q172 580 117 633T61 731Q61 748 92 812T177 956T291 1096Q360 1165 448 1219T618 1303T750 1333Q822 1333 862 1279T903 1126Q903 996 801 750T487 174Q490 164 494 153T498 131Q498 129 495 124T488 112T483
104L410 -16Q398 -37 385 -37Q373 -37 365 -29Z" />
<glyph unicode="J" glyph-name="J" horiz-adv-x="768" d="M782 244L516 94Q428 -55 340 -187T183 -406T64 -538T-10 -584Q-42 -584 -62 -563T-82 -512Q-82 -404 39 -242T424 104Q538 323 612 502T725 808T779 1012T795 1110Q795 1153 762 1153Q735 1153 683 1122T569
1030T455 887Q402 807 359 708T292 524T268 389Q268 376 272 332Q281 346 294 366T327 407T369 442Q382 452 400 458T418 457Q418 451 361 382T262 256Q238 224 198 196T133 168Q103 168 94 196T84 285Q84 432 134 612T270 928Q339 1036 439 1123T633 1260T782
1309Q848 1309 884 1268T920 1153Q920 1117 912 1072T890 981T845 833T803 698Q772 595 722 487T578 199L782 309V244Z" />
<glyph unicode="K" glyph-name="K" horiz-adv-x="1343" d="M1214 -115Q1202 -115 1179 -102T1111 -58T1010 12L469 375L309 164Q309 137 302 124T272 86Q217 29 179 -1T109 -31Q94 -31 83 -19T72 12Q72 36 100 76L393 440Q367 481 367 524Q367 568 391 599T448
649T625 745Q831 1018 831 1051Q831 1073 805 1073Q778 1073 686 1041T443 943T86 772Q69 763 48 764T11 781T-4 823Q-4 831 -1 842T11 876T25 918Q27 924 34 961T60 1028T121 1096T246 1174Q261 1183 274 1185T287 1178Q287 1175 258 1154T193 1083Q485 1185 623
1226T846 1268Q892 1268 923 1206T954 1124Q954 1096 932 1061L772 821Q962 915 1067 970T1297 1091T1454 1173T1497 1190Q1520 1190 1520 1169Q1520 1157 1486 1104T1409 1008T1339 965Q1332 965 1322 968T1303 975Q1168 905 973 809T664 659L578 530L1085 186Q1155
139 1186 111T1233 50T1249 -33Q1249 -115 1214 -115Z" />
<glyph unicode="L" glyph-name="L" horiz-adv-x="1217" d="M1075 758L1106 727Q1024 624 963 577T872 530Q848 530 848 573Q848 680 989 903Q1108 1096 1108 1118Q1108 1137 1092 1137Q1064 1137 951 1011T672 655Q484 399 414 289Q547 276 632 256T880 189T1120
135Q1026 28 991 -10T936 -57Q906 -70 847 -59T660 -14T421 41T217 63Q165 63 128 51T24 12T-70 -16Q-109 -16 -109 16Q-109 34 -96 57Q-63 110 -32 158T34 233T135 275T309 291Q472 541 613 734T869 1061T1072 1262T1210 1331Q1246 1331 1266 1311T1286 1255Q1286
1135 1075 758Z" />
<glyph unicode="M" glyph-name="M" horiz-adv-x="1706" d="M1729 319V250Q1634 161 1568 107T1435 9T1326 -53T1251 -72Q1177 -72 1130 -17T1083 125Q1083 225 1123 323T1239 525T1427 760Q1511 856 1511 868Q1511 875 1506 880T1495 885Q1476 885 1378 801T1127
554T795 166Q785 154 732 85T656 -6T618 -27Q590 -27 570 29T549 150Q549 189 574 234T685 395T827 592T950 786Q997 865 1019 912T1042 995Q1042 1026 1024 1026Q986 1026 881 925T622 623T299 160Q244 70 221 39T170 8Q135 8 105 82T74 203Q74 218 86 236Q218
412 303 535T454 768T550 950T580 1063Q580 1106 541 1106Q509 1106 432 1065T238 953T49 845T-57 807Q-90 807 -90 844Q-90 865 -76 940T-47 1047Q-26 1087 60 1153T156 1219Q164 1219 164 1212Q164 1208 156 1200Q115 1167 95 1146T70 1100Q253 1210 397 1267T598
1325Q626 1325 651 1288T693 1201T711 1137Q711 1086 685 1017T615 855T504 625Q556 692 603 749T696 860T791 969Q856 1044 937 1112T1088 1224T1184 1268Q1219 1268 1246 1230T1274 1147Q1274 1118 1236 1036T1125 826T932 496Q1046 617 1169 745T1352 932T1452
1022Q1507 1064 1562 1112T1650 1189T1707 1232T1753 1247Q1779 1247 1818 1187T1858 1110Q1858 1089 1835 1060T1737 952Q1601 806 1501 658T1350 387T1298 193Q1298 149 1314 129T1366 109Q1398 109 1425 121T1486 155T1550 197Q1592 222 1632 250T1695 295T1729
319Z" />
<glyph unicode="N" glyph-name="N" horiz-adv-x="1174" d="M219 387Q398 680 486 848T575 1063Q575 1080 563 1091T535 1102Q504 1102 360 1042Q241 992 186 963T35 878T-76 823Q-104 823 -104 862Q-104 936 -7 1061T254 1280Q274 1293 274 1278Q274 1273 250
1255T208 1219T166 1163Q376 1268 474 1311T643 1354Q704 1354 739 1329T774 1255Q774 1213 741 1133T643 939T513 712T272 307Q466 550 629 732T913 1028T1117 1199T1239 1257Q1253 1257 1272 1231T1306 1166T1321 1104Q1321 1038 1288 973T1188 817Q1000 563
914 417T827 182Q827 115 897 115Q929 115 972 139T1075 213T1196 322L1198 244Q1112 156 1044 94T916 -16T807 -87T723 -111Q671 -111 640 -76T608 18Q608 72 631 148T703 325T823 542T985 786Q1073 912 1073 948Q1073 969 1051 969Q962 969 645 614Q625 592 576
533T475 406T359 256T229 86Q198 45 176 45Q152 45 113 84T74 141Q74 162 129 246T219 387Z" />
<glyph unicode="O" glyph-name="O" horiz-adv-x="1174" d="M772 1026Q799 1033 826 1040T882 1052T938 1057Q996 1057 1037 1031T1099 961T1120 864Q1120 783 1091 679T1006 466T877 262Q776 132 635 53T375 -27Q288 -27 222 20T118 158T80 371Q80 535 169 699T395
997T671 1211T897 1292Q968 1292 1006 1249T1077 1108Q984 1105 915 1086T772 1026ZM520 823Q450 748 379 630T263 397T219 223Q219 74 358 74Q455 74 608 205T875 520T989 856Q989 967 901 967Q833 967 735 913T547 760Q515 724 420 584Q438 678 520 823Z" />
<glyph unicode="P" glyph-name="P" horiz-adv-x="1280" d="M418 594L723 1049Q619 1045 504 1019T307 964T161 908T68 870Q61 870 54 875T47 887Q47 895 93 985T203 1178Q553 1303 821 1303Q1131 1303 1251 1171Q1294 1125 1317 1058T1341 924Q1341 774 1279 652T1100
439T827 302T483 254Q450 254 348 266L258 102Q272 81 272 68Q272 37 258 16Q238 -14 205 -63T161 -128T135 -156T106 -168Q77 -168 69 -151T61 -102Q61 -58 104 37T236 291Q189 309 163 338T137 395Q137 457 208 510T418 594ZM522 567L465 471Q503 469 532 467T582
465Q757 465 885 512T1089 628T1199 768T1233 885Q1233 950 1181 987T1032 1037T780 1051Q782 1040 782 1024Q782 972 727 887L553 614L684 629Q700 629 700 614Q700 601 674 596L522 567Z" />
<glyph unicode="Q" glyph-name="Q" horiz-adv-x="1323" d="M276 698V786Q276 862 301 911T400 1008T621 1120Q783 1193 888 1226T1106 1260Q1234 1260 1304 1200T1374 1032Q1374 705 524 244Q613 230 730 206T919 171T1065 160Q1160 160 1249 186Q1187 52 1161
6T1103 -62T1020 -84Q910 -84 822 -71T591 -28T368 13T211 23Q183 5 166 -5T131 -23T100 -31Q59 -31 59 14Q59 54 89 113T145 197Q174 225 231 237T389 254Q604 377 754 482T1026 709Q1098 781 1145 848T1214 960T1235 1024Q1235 1065 1167 1065Q1069 1065 959
1032T728 937T455 776Q523 782 588 782Q664 782 664 754Q664 743 643 736T569 719Q539 714 508 702T434 669T370 640T332 631Q276 631 276 698Z" />
<glyph unicode="R" glyph-name="R" horiz-adv-x="1343" d="M776 92L399 276Q255 79 238 16Q226 -29 185 -59T125 -90Q74 -90 74 -51Q74 -29 134 75T301 322Q242 346 228 354T217 384T252 455Q280 497 294 511T327 534T367 546T485 561Q564 668 656 792T801 985Q644
964 582 950Q516 937 472 929T409 914T391 895Q391 884 413 880T468 876T520 874T539 862Q539 852 515 851T377 844Q313 842 270 840T209 838Q186 838 173 852T160 889Q160 906 179 952T233 1045T313 1118Q364 1149 471 1180T710 1231T971 1251Q1049 1251 1123
1242T1258 1220T1354 1194Q1445 1164 1493 1103T1542 969Q1542 898 1518 831T1443 706T1321 612Q1263 582 1145 551T860 496T487 461Q641 407 774 353T999 256T1143 186Q1216 148 1238 131T1267 87T1274 -2Q1274 -72 1266 -105T1229 -139Q1220 -139 1182 -120T1075
-63T952 4T776 92ZM864 995Q865 988 865 982T866 965Q866 937 849 901T804 826T722 716T621 584Q831 624 979 661T1224 735T1368 814T1417 901Q1417 951 1316 979T1067 1008Q1037 1008 1004 1007T924 1001T864 995Z" />
<glyph unicode="S" glyph-name="S" horiz-adv-x="1323" d="M1051 289Q1026 335 976 372T864 431T733 465Q531 495 356 596Q341 604 324 630T307 680Q307 768 336 856T412 995Q486 1078 678 1140T1112 1202Q1256 1202 1334 1180T1413 1112Q1413 1037 1393 996T1349
942T1266 905Q1203 883 1157 859T1077 813T1036 791Q1026 791 1026 799Q1026 816 1061 850T1149 911Q1204 940 1204 948Q1204 961 1143 961Q958 961 801 928T554 841T463 731Q463 696 500 682T666 633T895 555Q1040 493 1110 426T1180 276Q1180 219 1153 162T1072
56T950 -23Q891 -48 802 -70T608 -104T408 -117Q233 -117 127 -84T20 16Q20 46 56 109T141 195Q184 212 224 214T264 205Q264 202 261 199T254 194T246 190Q226 182 214 178T194 169T186 156Q186 135 393 135Q573 135 688 148T891 195T1051 289Z" />
<glyph unicode="T" glyph-name="T" horiz-adv-x="1174" d="M817 199L850 174Q837 146 825 125T796 74T770 29Q695 -102 629 -102Q601 -102 581 -80T561 -20Q561 34 599 128T718 359T921 671T1196 1038Q1108 1051 987 1051Q848 1051 678 1020T381 949T254 889Q254
882 259 880T275 876T305 872Q422 856 422 836Q422 826 371 826T248 827Q191 827 166 831T132 848T123 887Q123 904 133 961Q152 1067 191 1131T312 1235T537 1300Q777 1341 934 1341Q1050 1341 1117 1332T1215 1304T1255 1269T1278 1208L1309 1116Q1312 1107 1314
1102T1317 1090T1319 1079Q1319 1040 1302 1009T1238 916T1169 819Q911 400 817 199Z" />
<glyph unicode="U" glyph-name="U" horiz-adv-x="1280" d="M1227 788Q1129 644 1062 527T962 328T928 205Q928 131 993 131Q1062 131 1305 319L1303 250Q1022 -37 891 -37Q735 -37 735 125Q735 222 830 400T1120 860Q891 610 738 449T420 137Q381 100 349 70T285
22T215 4Q156 4 117 50T78 180Q78 234 110 305T207 472T367 680Q521 865 580 941T639 1038Q639 1053 623 1053Q604 1053 560 1036T442 979T254 866Q168 812 85 779T-33 745Q-53 745 -66 756T-80 784Q-80 808 -59 862T-5 975T55 1063Q127 1143 252 1204T509 1298T727
1331Q791 1331 820 1310T850 1239Q850 1132 823 1074T733 922Q710 886 665 824T573 702T496 602T434 514Q347 386 324 349T301 285Q301 250 334 250Q364 250 392 271T512 373Q618 464 718 564T900 754T1108 989Q1249 1153 1288 1194T1352 1235Q1374 1235 1391 1200T1409
1100Q1409 1066 1375 1010T1227 788Z" />
<glyph unicode="V" glyph-name="V" horiz-adv-x="874" d="M723 1130Q723 1121 700 1085T632 978T523 798T391 555Q313 402 279 315T244 164Q244 114 297 76Q361 126 423 195T545 349T685 564T827 803Q824 812 821 821T817 836Q817 883 836 924T883 1004T969 1114Q984
1133 1006 1133Q1042 1133 1042 1087Q1042 1041 1005 943T894 711T713 414T467 70Q328 -111 268 -111Q234 -111 191 -74T117 29T86 168Q86 212 104 281T162 446T252 637Q304 736 343 801T433 945T483 1032Q483 1047 463 1047Q405 1047 309 988T57 809Q-2 763 -17
750T-33 727Q-33 715 -14 715Q-6 715 40 721T113 727Q158 727 158 711Q158 697 140 689T89 673T0 651Q-60 635 -127 605T-205 575Q-224 575 -228 589T-233 635Q-233 777 -186 854T-18 1016Q120 1112 246 1175T463 1268T598 1298Q640 1298 681 1244T723 1130Z" />
<glyph unicode="W" glyph-name="W" horiz-adv-x="1430" d="M88 162Q88 185 98 226T125 291Q168 352 204 403T268 491T324 557Q495 742 569 833T643 961Q643 985 621 998T563 1012Q489 1012 377 960T116 823T-51 739Q-78 739 -78 778Q-78 811 -57 872Q-41 938 -31
974T2 1040T80 1103T248 1196L258 1159Q352 1197 435 1217T578 1237Q694 1237 742 1198T791 1026Q791 954 770 906T688 772Q549 570 479 492Q276 260 276 221Q276 199 305 199Q329 199 373 233T479 331T651 514Q768 640 848 736T981 901T1036 975Q1090 1041 1147
1083T1221 1126Q1233 1126 1249 1104T1276 1052T1288 1006Q1288 1001 1264 958T1212 868T1122 725Q986 514 914 371T842 182Q842 166 853 153T877 139Q893 139 935 164T1028 238Q1095 302 1150 371T1259 525T1355 686T1440 846L1423 897Q1419 909 1419 928Q1419
943 1478 1025T1556 1108Q1577 1108 1591 1078T1606 1016Q1606 982 1576 881T1481 635T1321 342Q1239 212 1146 120T977 -18T866 -63Q825 -63 780 -27Q743 5 728 30T707 86T702 156Q702 241 749 355T889 639Q598 285 439 124T205 -37Q156 -37 122 21T88 162Z" />
<glyph unicode="X" glyph-name="X" horiz-adv-x="1237" d="M725 610L735 1059Q641 1045 551 1009T390 931T273 854T227 809Q227 799 254 799Q264 799 283 800T336 805Q354 805 354 799Q354 796 348 791T340 786Q246 749 172 726T86 702Q68 702 68 725Q68 785 102
867T199 1012Q242 1057 320 1105T489 1192T674 1254T844 1278Q890 1278 915 1261T940 1182Q940 1157 933 1047T924 827L1110 1030Q1154 1078 1200 1129T1262 1193T1296 1206Q1331 1206 1331 1176Q1331 1135 1249 989Q1219 973 1176 965L909 662L877 119Q875 92
886 79T920 66Q948 66 999 94T1135 180Q1139 182 1147 182Q1165 182 1165 166Q1165 141 1101 66T953 -69T799 -129Q748 -129 731 -90T713 39Q713 68 713 97T715 181T717 295T721 442Q602 316 525 226T409 85T358 18Q309 -41 242 -86T143 -131Q111 -131 111 -82Q111
-22 166 58T307 197Q330 210 395 244L725 610Z" />
<glyph unicode="Y" glyph-name="Y" horiz-adv-x="1130" d="M-131 696L-113 813Q-104 873 -81 911T-1 994T178 1124Q469 1327 631 1327Q680 1327 700 1307T721 1237Q721 1202 695 1141T598 948T473 711Q429 625 373 529T298 396T279 342Q279 322 292 308T324 293Q350
293 382 321T510 442Q556 488 608 551T739 713T883 897Q924 950 957 992T1013 1056T1051 1079Q1063 1079 1090 1049L1114 1018Q1141 980 1141 963Q1141 943 1067 817T940 598T806 331T647 -57Q850 96 925 147T1034 199Q1057 199 1057 180Q1057 159 1035 126T976
52T865 -65T702 -231Q648 -286 597 -359T518 -472T467 -518Q433 -528 405 -503T377 -424Q377 -386 415 -267T532 29Q578 135 626 229T736 437T859 653T961 827Q861 696 763 573T543 313T297 57Q243 6 220 -12T158 -31Q134 -31 112 -15T74 28T59 80Q59 122 71 154T115
250Q251 525 313 627Q535 983 535 1026Q535 1040 525 1048T500 1057Q472 1057 433 1033T335 960T192 845T14 717Q-23 693 -69 660T-123 627Q-137 627 -137 641Q-137 654 -131 696Z" />
<glyph unicode="Z" glyph-name="Z" horiz-adv-x="1110" d="M158 -573L123 -541Q92 -510 92 -473Q92 -439 139 -367T284 -200T529 -1T866 199Q855 272 827 297T729 322Q671 322 528 262T274 111Q232 76 215 76Q195 76 195 109Q195 165 227 237T307 350Q372 407
508 469Q655 538 776 620T963 774T1030 881Q1030 920 954 920Q856 920 725 877T433 742T96 514Q104 653 120 734T170 867T259 957T424 1057Q726 1227 930 1227Q1054 1227 1126 1166T1198 993Q1198 915 1166 849T1071 725T925 616T721 506Q854 501 913 448T991 258L1122
313V238L985 174Q946 5 845 -138T618 -381T376 -537T203 -592Q179 -592 158 -573ZM840 96Q723 45 613 -36T423 -198T292 -346T240 -436Q240 -455 268 -455Q313 -455 429 -384T674 -174Q760 -81 789 -26T840 96Z" />
<glyph unicode="[" glyph-name="bracketleft" horiz-adv-x="598" d="M776 1360Q851 1350 952 1350Q1020 1350 1137 1360Q1107 1294 1086 1249T1046 1176T1003 1136T946 1124Q905 1124 799 1151Q619 837 548 715T423 504T321 332T236 188Q122 -14 72 -193Q174 -156
246 -156Q335 -156 410 -199Q343 -301 310 -363T252 -514Q221 -494 190 -483T109 -471Q59 -471 25 -478T-52 -496T-104 -508Q-162 -508 -162 -381Q-162 -315 -128 -225T-26 -11T145 284T383 672Q461 798 518 895T604 1044T688 1199T776 1360Z" />
<glyph unicode="\" glyph-name="backslash" horiz-adv-x="575" d="M573 -135H428L4 1380H150L573 -135Z" />
<glyph unicode="]" glyph-name="bracketright" horiz-adv-x="748" d="M545 1372Q586 1348 612 1339T684 1329Q735 1329 813 1348T897 1368Q958 1368 958 1260Q958 1161 899 1024T750 733T457 250Q361 94 284 -38T150 -271T23 -498Q-39 -494 -75 -493T-178 -492Q-255
-492 -340 -502Q-299 -403 -275 -359T-222 -290T-152 -266Q-109 -266 -59 -278T0 -291Q148 -30 343 299T610 757T709 969Q721 1009 729 1053Q671 1033 633 1024T553 1014Q477 1014 389 1059Q441 1142 460 1175T505 1263T545 1372Z" />
<glyph unicode="^" glyph-name="asciicircum" horiz-adv-x="961" d="M477 1128L238 530H53L408 1331H551L907 530H725L477 1128Z" />
<glyph unicode="_" glyph-name="underscore" horiz-adv-x="1024" d="M-12 -256V-154H1036V-256H-12Z" />
<glyph unicode="`" glyph-name="grave" horiz-adv-x="682" d="M530 911Q497 911 449 975Q389 1053 354 1108T319 1194Q319 1237 383 1237Q441 1237 473 1202T541 1071Q573 986 573 956Q573 938 561 925T530 911Z" />
<glyph unicode="a" glyph-name="a" horiz-adv-x="831" d="M133 494Q285 632 428 699T649 766Q670 766 688 749T716 708T727 674Q727 656 713 648T664 627Q671 611 682 586T699 546T705 518Q705 494 657 429T589 332T569 256Q569 182 637 182Q707 182 856 313V252Q603
-29 494 -29Q455 -29 439 -4T422 72Q422 151 479 301Q333 139 262 71T145 2Q123 2 90 40T32 138T6 264Q6 311 15 342T50 407T133 494ZM612 604Q352 485 242 402T131 231Q131 199 142 179T172 158Q183 158 211 172Q316 234 403 333T612 604Z" />
<glyph unicode="b" glyph-name="b" horiz-adv-x="662" d="M678 313V248Q574 182 514 182Q481 182 444 193Q354 79 290 26T160 -27Q85 -27 45 52T4 248Q4 407 100 594T331 945T594 1216T766 1323Q809 1323 809 1264Q809 1002 137 350Q135 332 135 279Q135 141 209
141Q238 141 267 164T358 254Q334 308 334 334Q334 389 379 453T481 563T565 610Q606 610 606 551Q606 506 583 443T514 299Q531 285 541 279T571 272Q617 272 678 313ZM170 463Q222 508 274 569T428 758Q525 880 580 961T664 1097T692 1171Q692 1186 684 1186Q662
1186 593 1114T434 915Q311 741 256 653T170 463Z" />
<glyph unicode="c" glyph-name="c" horiz-adv-x="598" d="M618 313V246Q511 141 444 83T318 -7T203 -39Q148 -39 102 4T30 118T4 268Q4 336 34 389T150 526Q252 626 339 680T477 735Q513 735 538 710T563 647Q563 615 530 556T456 454T391 410Q365 410 365 438Q366
446 366 453T367 467Q367 479 359 480T338 473Q238 403 201 375T143 317T121 256Q121 197 159 160T258 123Q321 123 409 171T618 313Z" />
<glyph unicode="d" glyph-name="d" horiz-adv-x="854" d="M473 313Q385 213 316 143T203 39T143 4Q117 4 85 46T29 153T6 285Q6 382 100 480T314 644T494 709Q543 709 590 647Q667 808 736 933T853 1119T920 1180Q942 1180 960 1159T979 1110Q979 1058 903 932T753
685T626 449T573 233Q573 143 631 143Q666 143 719 182T870 315V242Q654 -37 537 -37Q490 -37 470 -1T449 106Q449 202 473 313ZM547 557Q458 527 338 461T193 369Q171 349 154 294T137 211Q137 194 147 183T172 172Q186 172 204 184T261 231T313 276Q330 291 388
340T474 418T520 480T547 557Z" />
<glyph unicode="e" glyph-name="e" horiz-adv-x="598" d="M176 279V254Q176 195 205 162T281 129Q330 129 382 152T487 213T614 315V254Q501 118 402 46T201 -27Q112 -27 60 42T8 231Q8 336 57 421T217 602Q293 667 368 700T502 733Q549 733 576 712T604 647Q604
584 557 522T414 398T176 279ZM186 344Q276 379 340 431T434 530T465 600Q465 623 444 623Q426 623 386 600T304 540T229 453T186 344Z" />
<glyph unicode="f" glyph-name="f" horiz-adv-x="555" d="M573 315V246Q513 186 482 159T397 104Q397 13 388 -51T348 -185T252 -340Q188 -423 126 -467T29 -512Q-10 -512 -43 -448T-76 -289Q-76 -198 -45 -97T51 164Q2 228 2 291Q2 342 28 369T102 418Q137 473
168 511T254 614Q358 870 498 1114Q537 1182 554 1205T590 1229Q607 1229 620 1204T633 1139Q633 1090 623 1049T593 967T539 867T496 795Q446 707 383 600T284 431T231 338Q285 291 316 257T371 176Q405 189 433 207T499 256T573 315ZM274 47L272 68Q244 65 227
66T188 75T153 88T125 100Q49 -86 49 -209Q49 -270 67 -313T111 -356Q137 -356 176 -310T245 -174T274 47Z" />
<glyph unicode="g" glyph-name="g" horiz-adv-x="788" d="M811 248L479 -25Q339 -267 224 -386T53 -506Q23 -506 23 -469Q23 -397 96 -285Q125 -241 162 -199T233 -127T322 -51T397 12Q497 216 541 324Q447 224 377 160T249 62T143 27Q92 27 49 108T6 276Q6 316
24 360T82 454T183 556T326 659Q481 756 567 756Q631 756 631 709Q631 644 492 582Q407 545 324 484T189 355T137 231Q137 204 150 188T184 172Q219 172 264 204T397 317Q437 354 503 436T613 562T692 606Q712 606 724 594T737 557Q737 511 701 424T569 137L811
313V248Z" />
<glyph unicode="h" glyph-name="h" horiz-adv-x="748" d="M764 315V252Q677 163 614 107T503 21T422 -8Q344 -8 344 84Q344 158 392 255T532 485Q487 460 447 428T376 360T324 299Q259 226 199 150T118 50T78 27Q0 27 0 219Q0 282 19 358T121 559Q296 821 420
987T627 1239T737 1323Q772 1320 793 1309T815 1284Q815 1259 781 1202T662 1022Q571 893 533 841T420 692T282 520T139 356V236Q273 385 371 480T537 623T637 672Q667 672 693 637T719 578Q719 568 709 553Q637 467 595 411T529 310T506 233Q506 186 551 186Q599
186 764 315Z" />
<glyph unicode="i" glyph-name="i" horiz-adv-x="469" d="M426 762Q401 762 379 781T356 829Q356 873 398 927T485 981Q515 981 535 963T555 909Q555 866 514 814T426 762ZM494 315V242Q397 117 313 54T170 -10Q88 -10 48 76T8 264Q8 303 16 338T35 397T76 469Q218
690 336 690Q397 690 397 643Q397 611 358 543T287 446Q200 362 174 329T147 254Q147 218 174 194T244 170Q291 170 347 204T494 315Z" />
<glyph unicode="j" glyph-name="j" horiz-adv-x="575" d="M717 1012Q717 982 694 928Q669 855 650 831T590 807Q504 807 504 864Q504 909 557 993Q585 1038 602 1048T657 1059Q717 1059 717 1012ZM76 494L104 573L289 657Q454 735 528 735Q586 735 586 682Q586
663 571 621T519 499T434 320T334 113Q409 164 465 207T598 317L600 246Q408 80 244 -84Q145 -277 69 -375T-45 -473Q-72 -473 -72 -420Q-72 -355 -43 -290T46 -152T188 -4Q315 246 367 359T420 508Q420 530 399 530Q388 530 250 466T78 401Q57 401 57 424Q57 439
76 494Z" />
<glyph unicode="k" glyph-name="k" horiz-adv-x="748" d="M770 315V248Q658 117 582 50T455 -18Q406 -18 367 11T296 91T221 233Q170 170 129 116T72 43T43 25Q16 25 4 59T-8 160Q-8 250 13 333T75 496T179 666T322 858Q431 996 510 1083T647 1215T745 1260Q793
1260 793 1217Q793 1180 616 951T100 324V238Q327 481 465 599T680 717Q711 717 728 681T745 596Q745 498 661 415T403 223Q433 178 456 158T514 137Q545 137 581 158T654 211T770 315ZM375 264Q413 289 469 341T566 450T606 545Q606 561 592 561Q554 561 462 488T281
301Q319 301 375 264Z" />
<glyph unicode="l" glyph-name="l" horiz-adv-x="469" d="M494 326V252Q285 -25 154 -25Q83 -25 43 52T2 256Q2 358 50 498T178 783T345 1035T506 1186Q536 1204 553 1204Q574 1204 581 1186T588 1122Q588 983 475 781T160 367Q150 315 150 287Q150 223 177 183T254
143Q279 143 308 162T369 211T494 326ZM195 506Q247 557 295 622T387 761T454 894T479 983Q479 1006 463 1006Q457 1006 440 995Q379 945 303 800T195 506Z" />
<glyph unicode="m" glyph-name="m" horiz-adv-x="1130" d="M473 178Q611 300 710 390T865 533T965 621T1020 657Q1043 658 1064 610T1085 532Q1085 513 1022 443T927 330T895 242Q895 215 913 199T956 182Q985 182 1025 212T1153 319V248Q1066 166 995 107T872
18T784 -12Q753 -12 732 11T711 70Q711 104 723 139T760 222T826 337T901 461Q799 378 720 301T591 167T512 76Q456 14 408 14Q356 14 356 88Q356 118 395 195T506 393Q512 401 512 418Q512 438 492 438Q470 438 429 397T268 223Q235 186 194 127T134 47T98 27Q62
27 31 91T0 240Q0 302 20 347T84 459Q151 556 193 597T283 639Q312 639 332 628T352 596Q352 575 316 527T223 428Q193 399 166 357T139 295Q139 268 160 268Q177 268 246 338T397 490T550 627T670 682Q700 682 719 660T739 604Q739 582 709 525T622 383T473 178Z"
/>
<glyph unicode="n" glyph-name="n" horiz-adv-x="748" d="M690 496Q514 300 514 223Q514 180 549 180Q578 180 624 210T770 319V250Q628 110 552 48T428 -14Q346 -14 346 94Q346 126 356 157T383 221T437 317T520 459Q463 430 377 344Q321 290 282 242T199 134T134
54T92 33Q60 33 33 100T6 256Q6 311 18 342T68 430Q137 536 187 585T283 635Q315 635 334 624T354 590Q354 580 348 569T335 549T303 514Q145 339 145 287Q145 258 164 258Q176 258 210 296T299 397T428 528T598 659Q651 696 686 696Q702 696 717 652T733 563Q733
541 690 496Z" />
<glyph unicode="o" glyph-name="o" horiz-adv-x="641" d="M659 317V250Q593 190 553 170T438 154Q308 0 209 0Q153 0 107 37T34 138T6 281Q6 345 48 423T158 568T303 677T446 719Q493 719 520 705T547 664Q547 644 524 618Q562 610 576 592T590 524Q590 476 568
403T506 266L524 248H539Q556 248 572 256T602 274T659 317ZM453 580Q370 530 311 490T211 408T156 324Q131 212 131 203Q131 137 223 137Q266 137 367 211Q350 258 350 301Q350 364 376 429T453 580Z" />
<glyph unicode="p" glyph-name="p" horiz-adv-x="831" d="M4 231V301Q144 453 245 587T406 800T510 911T623 944Q657 944 657 918Q657 897 630 856T559 772Q502 716 448 632T324 416Q378 458 448 515T563 605T651 657T739 676Q767 676 775 666T784 627Q784 551
747 479T641 328T471 158Q506 145 543 145Q659 145 854 322V250Q778 182 706 122T569 26T451 -10Q431 -10 409 -6T367 5T318 24T272 41Q240 33 236 33Q201 33 154 61Q121 -3 82 -104T15 -266T-57 -381Q-82 -406 -92 -406Q-135 -406 -135 -330Q-135 -264 -109 -193T-44
-57T41 72T106 170Q264 442 352 633Q122 353 4 231ZM410 182Q509 286 557 359T606 471Q606 508 569 508Q519 508 429 426T242 203Q316 211 341 209T410 182Z" />
<glyph unicode="q" glyph-name="q" horiz-adv-x="768" d="M745 678Q745 651 731 631Q736 623 745 607T760 579T766 557Q766 543 742 503T656 370T532 186L580 156Q700 232 788 322V250Q709 154 627 78Q635 36 635 25Q635 -75 540 -203T325 -428T158 -526Q84 -526
84 -395Q84 -355 142 -256T306 -7T575 369Q379 177 330 130T233 50T147 16Q109 16 76 59T24 161T4 264Q4 316 16 350T66 428Q148 531 262 605T491 714T688 750Q745 750 745 678ZM152 184Q194 184 255 218T389 317Q477 396 542 462T641 569T674 616Q674 625 666
625Q634 625 534 583T330 476T172 348Q151 323 136 276T121 213Q121 184 152 184ZM444 53Q372 -52 302 -185T231 -340Q231 -354 245 -352T291 -336Q356 -307 440 -199Q497 -124 514 -76T539 35Q479 25 444 53Z" />
<glyph unicode="r" glyph-name="r" horiz-adv-x="598" d="M6 238V303Q60 367 88 412Q56 423 42 439T27 487Q27 523 57 578T131 681T211 743Q225 750 238 750Q258 750 258 731Q258 714 227 662Q433 694 487 694Q508 694 516 690Q533 681 544 648T555 582Q555 561
537 537T473 465Q420 408 384 341T348 240Q348 193 406 193Q467 193 618 317V250Q535 163 481 113T381 34T299 4Q257 4 229 42T201 154Q201 197 223 252T287 371T383 500Q355 494 320 488T246 474T186 463Q124 339 6 238Z" />
<glyph unicode="s" glyph-name="s" horiz-adv-x="639" d="M12 287V311Q270 583 367 692Q389 815 473 815Q494 815 518 803L524 784Q520 772 520 750Q520 731 534 680T557 593T565 514Q565 448 535 388T448 272T301 158Q337 152 358 152Q399 152 446 172T543 227T659
317V250Q531 125 430 61T256 -4Q162 -4 82 76Q35 124 24 168T12 287ZM385 440L367 586Q305 516 102 317Q162 304 184 282T246 197Q314 225 350 273T387 406Q387 416 387 424T385 440Z" />
<glyph unicode="t" glyph-name="t" horiz-adv-x="512" d="M367 834H410Q463 929 506 968T604 1008Q659 1008 659 983Q659 971 616 918T551 829Q585 825 611 822T653 817Q596 711 510 600Q482 602 463 603T425 606T377 610Q323 523 287 455T231 329T211 221Q211
152 266 152Q304 152 365 192T530 317V250Q260 -43 131 -43Q86 -43 59 -8T31 82Q31 119 46 170T102 324Q88 312 76 301T53 280T30 260T6 238V307Q111 395 260 616Q245 617 232 617T201 618Q142 618 113 610Q101 607 91 604T76 600T72 606Q72 639 113 705Q146 761
175 788T247 824T367 834Z" />
<glyph unicode="u" glyph-name="u" horiz-adv-x="788" d="M487 383Q342 191 267 110T143 29Q105 29 73 60T24 145T6 260Q6 300 13 332T42 402T97 486T182 588Q212 623 232 647T272 679T336 688Q368 688 397 680T426 662Q426 644 397 597T302 483T150 350Q131 291
131 260Q131 217 164 217Q176 217 204 237T298 316T418 420Q457 454 508 521T592 623Q666 701 693 724T745 748Q769 748 777 733T786 672Q786 651 782 638T766 605T715 529T625 399Q597 359 576 312T555 240Q555 188 596 188Q630 188 675 216T813 317V250Q696 142
640 93T543 19T465 -6Q381 -6 381 94Q381 132 406 196T487 383Z" />
<glyph unicode="v" glyph-name="v" horiz-adv-x="662" d="M147 313L129 229Q125 213 125 193Q125 139 170 139Q213 139 379 307Q380 372 427 457T532 606T618 670Q662 670 662 612Q662 577 645 527T595 418T514 297Q539 252 565 252Q587 252 613 267T680 315V248Q624
204 592 188T508 172Q488 172 436 199Q334 91 270 38T166 -16Q97 -16 49 66T0 248Q0 381 150 567Q195 623 222 643T285 664Q315 664 342 653T369 627Q369 577 302 481T147 313Z" />
<glyph unicode="w" glyph-name="w" horiz-adv-x="1004" d="M539 197Q539 152 573 152Q617 152 727 301Q723 329 723 338Q723 392 766 470T865 606T950 664Q985 664 985 580Q985 511 956 444T870 307Q879 298 890 289T913 273T940 266Q973 266 1024 319V248Q945
166 887 166Q853 166 834 174T784 205Q600 -16 504 -16Q467 -16 446 11T424 88Q424 112 444 268Q405 223 353 162T269 69T210 18T154 0Q127 0 90 34T26 124T0 246Q0 309 18 354T100 489Q158 569 203 620T284 699T344 727Q358 727 380 721T420 703T438 680Q438 642
405 584T305 454T154 307Q131 238 131 195Q131 181 139 169T160 156Q201 156 317 284T625 672Q632 682 655 682Q680 682 700 671T721 641Q721 630 669 524T578 330T539 197Z" />
<glyph unicode="x" glyph-name="x" horiz-adv-x="598" d="M213 315V551Q176 542 143 519T72 462T25 428Q14 428 14 457Q14 486 73 559T205 695T309 758Q328 758 342 736T356 676Q356 651 355 630T353 574T350 473Q571 709 612 709Q624 709 631 700T639 676Q639
643 586 575T514 506Q489 506 475 514L348 352Q350 264 363 221T412 178Q442 178 482 208T612 319V250Q407 -33 322 -33Q269 -33 247 23T217 195Q182 159 135 108T67 36T28 0T-4 -14Q-18 -14 -18 10Q-18 50 24 120T86 190Q88 190 95 188T102 186L213 315Z" />
<glyph unicode="y" glyph-name="y" horiz-adv-x="768" d="M477 276L299 125Q172 14 129 14Q90 14 47 103T4 260Q4 317 21 356T82 459Q143 544 199 603T298 694T358 727Q385 727 410 699T436 641Q436 622 409 580T322 474T156 319L137 264Q129 248 129 236Q129
209 156 209Q184 209 287 280T512 471Q559 518 590 554T646 621T687 669T717 686Q742 689 756 665T770 594Q770 567 746 527T656 389T525 187T391 -49Q394 -46 452 11T576 130T683 229T788 317V250Q653 105 544 -25T375 -233T305 -324Q278 -359 257 -389T221 -436T197
-453Q176 -453 160 -412T143 -338Q143 -309 154 -287Q226 -125 477 276Z" />
<glyph unicode="z" glyph-name="z" horiz-adv-x="618" d="M4 227V301Q59 359 117 463Q61 471 61 508Q61 539 98 588T186 676T266 715Q299 715 299 688Q299 677 293 674Q285 669 285 657Q285 647 301 647Q351 647 426 667T530 688Q553 688 561 645Q582 531 582
516Q582 502 570 490T500 440T393 369T266 272Q320 247 344 216T387 121L637 317V250L385 47Q375 -49 319 -148T187 -326T38 -455T-70 -506Q-103 -506 -116 -485T-129 -422Q-129 -363 -104 -310T-30 -205T87 -98T270 35Q259 106 233 123T154 158T100 211Q100 250
475 510Q415 498 334 484T180 463Q129 382 83 321T4 227ZM260 -59Q188 -109 121 -171T6 -290T-43 -358Q-43 -381 -23 -381Q13 -381 70 -341T181 -227T260 -59Z" />
<glyph unicode="{" glyph-name="braceleft" horiz-adv-x="854" d="M797 -573H741Q675 -573 644 -570T575 -549Q524 -526 491 -481T442 -367T426 -209Q426 -1 419 91T367 242T217 305V469Q322 473 366 532T418 684T426 985Q426 1074 441 1142T490 1254T575 1323Q602
1336 629 1342T682 1349T741 1350H797V1192H766Q694 1192 659 1177T609 1118T594 985V840Q594 712 577 626T514 482T383 387Q464 349 509 296T574 158T594 -63V-211Q594 -301 608 -343T659 -401T766 -416H797V-573Z" />
<glyph unicode="|" glyph-name="bar" horiz-adv-x="1110" d="M530 -514V1380H690V-514H530Z" />
<glyph unicode="}" glyph-name="braceright" horiz-adv-x="854" d="M168 1350H223Q278 1350 317 1345T389 1323Q442 1300 475 1255T523 1142T539 985Q539 779 546 686T598 532T748 469V305Q642 302 598 242T547 89T539 -209Q539 -298 524 -366T474 -480T389 -549Q353
-566 316 -569T223 -573H168V-416H199Q271 -416 306 -401T356 -343T371 -211V-63Q371 131 414 233T580 387Q520 416 481 451T417 538T382 662T371 840V985Q371 1074 357 1117T307 1176T199 1192H168V1350Z" />
<glyph unicode="~" glyph-name="asciitilde" horiz-adv-x="1366" d="M231 467H174Q183 631 255 711T432 791Q501 791 580 766T767 693T929 626T1026 606Q1101 606 1149 654T1206 791H1264Q1258 637 1183 553T997 469Q933 469 864 491T692 557T525 624T406 647Q263
647 231 467Z" />
</font>
</defs>
</svg>
